<?xml version="1.0" encoding="UTF-8" standalone="no"?><!DOCTYPE svg PUBLIC "-//W3C//DTD SVG 1.1//EN" "http://www.w3.org/Graphics/SVG/1.1/DTD/svg11.dtd"><svg width="100%" height="100%" viewBox="0 0 490 106" version="1.1" xmlns="http://www.w3.org/2000/svg" xmlns:xlink="http://www.w3.org/1999/xlink" xml:space="preserve" style="fill-rule:evenodd;clip-rule:evenodd;stroke-linejoin:round;stroke-miterlimit:1.41421;"><g><g><path d="M49.048,45.407l-21.639,-41.574l4.199,0c0.572,1.368 1.372,3.09 2.4,5.168c1.143,2.235 1.785,3.563 1.928,3.983c0.143,0.237 0.271,0.513 0.386,0.829l10.069,19.209c3.514,6.679 7.256,10.729 11.227,12.149l0,0.71c-3.885,-0.316 -6.742,-0.474 -8.57,-0.474Zm-30.594,-19.84l12.94,0l-6.213,-11.991l-6.727,11.991Zm18.296,10.295l-3.813,-7.337l-16.154,0l-4.071,7.337c0,0 -0.071,0.171 -0.214,0.513c-0.029,0.026 -0.243,0.407 -0.643,1.143c-0.6,1.105 -0.9,2.236 -0.9,3.393c0,1.998 1.2,3.418 3.599,4.26l0,0.71c-0.485,0 -1.328,-0.066 -2.528,-0.198c-1.685,-0.184 -3.199,-0.276 -4.542,-0.276c-1.228,0 -2.742,0.092 -4.542,0.276c-1.228,0.132 -2.042,0.198 -2.442,0.198l0,-0.71c3.142,-1.473 5.999,-4.51 8.57,-9.112l14.226,-25.481c-1.086,-2.025 -2.578,-3.589 -4.478,-4.694c-1.9,-1.104 -4.121,-1.709 -6.663,-1.814l0,-0.71l1.5,0c1.342,0 3.185,0.079 5.527,0.237c2.457,0.157 4.057,0.236 4.799,0.236l21.639,41.574c-2.771,0.053 -6.099,0.211 -9.984,0.474l0,-0.71c2.171,-0.342 3.257,-1.42 3.257,-3.235c0,-1.341 -0.714,-3.366 -2.143,-6.074Z" style="fill:#0051ff;fill-rule:nonzero;stroke:#2a5d7a;stroke-width:1px;"/><path d="M66.873,9.395c-3.256,3.865 -4.885,9.006 -4.885,15.423c0,7.52 2.014,13.174 6.042,16.96c-3.057,-1.183 -5.485,-3.326 -7.284,-6.429c-1.8,-3.077 -2.7,-6.548 -2.7,-10.413c0,-2.656 0.471,-5.102 1.414,-7.337c0.886,-2.209 1.943,-3.931 3.171,-5.167c1.143,-1.183 2.557,-2.196 4.242,-3.037Zm35.65,27.453l0.857,0l-1.371,6.666c-2.656,0.947 -5.213,1.643 -7.67,2.09c-2.456,0.448 -4.827,0.671 -7.113,0.671c-6.913,0 -12.326,-1.854 -16.239,-5.562c-3.914,-3.681 -5.871,-9.032 -5.871,-16.053c0,-6.995 2.1,-12.346 6.299,-16.054c4.171,-3.681 9.684,-5.522 16.54,-5.522c4.97,0 9.998,0.828 15.083,2.485c-0.229,3.313 -0.343,5.272 -0.343,5.877c0,0.552 0.014,1.091 0.043,1.617l0,0.947c0,1.367 -0.072,2.669 -0.215,3.905l-0.728,0c-1.771,-7.942 -6.713,-11.912 -14.826,-11.912c-5.484,0 -9.855,1.643 -13.112,4.93c-3.256,3.261 -4.884,7.968 -4.884,14.121c0,5.391 1.499,9.769 4.499,13.135c2.971,3.366 7.455,5.049 13.454,5.049c3.314,0 6.342,-0.605 9.084,-1.815c2.714,-1.157 4.885,-2.682 6.513,-4.575Z" style="fill:#0051ff;fill-rule:nonzero;stroke:#2a5d7a;stroke-width:1px;"/><path d="M152.485,3.833l0,41.574l-4.028,0c0.286,-0.868 0.443,-2.143 0.472,-3.826c-4.742,2.866 -9.713,4.3 -14.912,4.3c-3.056,0 -5.727,-0.618 -8.012,-1.854c-2.286,-1.236 -3.828,-2.827 -4.628,-4.773c-0.829,-1.972 -1.243,-4.746 -1.243,-8.323l0,-27.098c3,0 6.313,-0.157 9.941,-0.473l0,0.71c-1.571,0.237 -2.842,0.802 -3.813,1.696c-1.029,0.947 -1.686,1.999 -1.971,3.156c-0.343,1.209 -0.515,3.089 -0.515,5.64l-0.042,0.828l0,15.068c0,3.34 0.271,5.759 0.814,7.258c0.514,1.551 1.685,2.84 3.513,3.865c1.857,1.026 4.157,1.539 6.899,1.539c4.399,0 9.055,-1.486 13.969,-4.458l0,-23.035c0,-2.971 -0.157,-5.141 -0.472,-6.508c-0.285,-1.289 -0.899,-2.38 -1.842,-3.274c-0.886,-0.815 -2.1,-1.407 -3.642,-1.775l0,-0.71c0.171,0 0.571,0.013 1.2,0.039c0.628,0.027 1.299,0.079 2.013,0.158c2.343,0.132 4.442,0.224 6.299,0.276Zm-44.905,-0.473l9.555,0.473l0,27.374c0,4.076 0.3,6.929 0.9,8.56c0.6,1.683 1.899,3.3 3.899,4.851c-1.8,-0.263 -3.414,-0.881 -4.842,-1.853c-1.428,-0.947 -2.385,-2.091 -2.871,-3.432c-0.457,-1.289 -0.685,-3.432 -0.685,-6.429l0,-18.855c0,-3.208 -0.472,-5.574 -1.414,-7.1c-0.943,-1.525 -2.457,-2.485 -4.542,-2.879l0,-0.71Zm50.433,42.047l-2.443,0l0,-41.574c2.143,-0.052 3.771,-0.118 4.885,-0.197l4.842,-0.276l0,0.71c-1.457,0.237 -2.714,0.855 -3.771,1.854c-0.999,0.973 -1.656,2.182 -1.971,3.629c-0.285,1.341 -0.428,3.905 -0.428,7.691l0,17.356c0,6.521 2.057,10.045 6.17,10.571l0,0.71c-3.771,-0.316 -6.199,-0.474 -7.284,-0.474Z" style="fill:#0051ff;fill-rule:nonzero;stroke:#2a5d7a;stroke-width:1px;"/><path d="M197.52,45.407l-1.115,0l0,-41.574l15.426,0c2.828,0 5.613,-0.157 8.356,-0.473c0,0.5 -0.043,1.407 -0.129,2.722c-0.086,1.209 -0.128,2.721 -0.128,4.536c0,1.157 -0.072,2.327 -0.215,3.51l-1.028,0c-0.057,-2.156 -0.643,-3.944 -1.757,-5.364c-1.143,-1.446 -3.556,-2.17 -7.241,-2.17l-9.727,0l0,28.242c0,3.235 0.5,5.667 1.5,7.297c0.999,1.631 2.542,2.643 4.627,3.038l0,0.71c-5.056,-0.316 -7.912,-0.474 -8.569,-0.474Zm-18.426,-41.574l14.141,0l0,41.574l-1.286,0c-1.857,0 -4.628,0.158 -8.313,0.474l0,-0.71c2.371,-0.553 4,-1.67 4.885,-3.353c0.857,-1.657 1.286,-4.418 1.286,-8.283l0,-26.941l-10.927,0c-2.771,0 -4.727,0.526 -5.87,1.578c-1.143,1.052 -2.1,3.037 -2.871,5.956l-0.986,0c-0.028,-0.342 -0.042,-0.71 -0.042,-1.104c0,-0.526 0.057,-1.197 0.171,-2.012c0.343,-2.814 0.514,-5.364 0.514,-7.652c1.514,0.184 3.4,0.302 5.656,0.355l3.642,0.118Z" style="fill:#0051ff;fill-rule:nonzero;stroke:#2a5d7a;stroke-width:1px;"/><path d="M232.527,3.833l1.414,0l0,41.574l-2.828,0c-1,0 -3.114,0.158 -6.342,0.474l0,-0.71c1.543,-0.369 2.714,-1.039 3.514,-2.012c0.828,-0.999 1.386,-2.143 1.671,-3.432c0.314,-1.367 0.472,-4.26 0.472,-8.677l0,-16.527c0,-3.813 -0.558,-6.43 -1.672,-7.85c-1.114,-1.42 -2.442,-2.287 -3.985,-2.603l0,-0.71c1.743,0.105 4.328,0.263 7.756,0.473Zm21.639,41.574l-17.14,0l0,-41.574l12.469,0c2.343,0 6.77,-0.157 13.283,-0.473c-0.057,0.789 -0.085,1.381 -0.085,1.775c0,0.526 0.071,1.749 0.214,3.668c0.086,1.289 0.129,1.986 0.129,2.091l0,0.986l-0.729,0c-1.028,-2.262 -2.199,-3.721 -3.513,-4.378c-1.315,-0.631 -3.785,-0.947 -7.413,-0.947l-6.813,0c-1.086,0 -2.086,0.066 -3,0.197c-0.514,0.894 -0.814,3.024 -0.9,6.39l-0.085,2.682l0,6.43l9.255,0c3.485,0 5.799,-0.276 6.942,-0.829c1.142,-0.552 2.056,-1.867 2.742,-3.944l0.943,0c-0.229,2.367 -0.343,4.418 -0.343,6.153c0,1.105 0.086,2.551 0.257,4.339c0.057,0.526 0.128,1.565 0.214,3.116l-0.943,0c-0.257,-2.314 -1.014,-3.905 -2.271,-4.773c-1.285,-0.867 -3.299,-1.301 -6.041,-1.301l-10.755,0l0,8.599c0,3.313 0.2,6.219 0.6,8.717c1.199,0.157 2.485,0.236 3.856,0.236l6.513,0c3.542,0 6.213,-0.368 8.013,-1.104c1.885,-0.763 3.742,-2.459 5.57,-5.088l0.857,0c-0.314,1.209 -0.785,2.603 -1.414,4.181c-0.771,2.051 -1.328,3.826 -1.671,5.325c-3.257,-0.316 -6.17,-0.474 -8.741,-0.474Z" style="fill:#0051ff;fill-rule:nonzero;stroke:#2a5d7a;stroke-width:1px;"/></g><g><path d="M13.883,67.987c-4.4,3.866 -6.6,9.007 -6.6,15.423c0,7.52 2.721,13.174 8.163,16.961c-4.13,-1.184 -7.41,-3.327 -9.842,-6.43c-2.431,-3.076 -3.647,-6.547 -3.647,-10.413c0,-2.656 0.637,-5.101 1.91,-7.336c1.197,-2.209 2.625,-3.932 4.285,-5.168c1.543,-1.183 3.454,-2.195 5.731,-3.037Zm48.168,27.453l1.158,0l-1.853,6.666c-3.589,0.947 -7.043,1.644 -10.363,2.091c-3.319,0.447 -6.522,0.67 -9.61,0.67c-9.34,0 -16.654,-1.854 -21.942,-5.561c-5.288,-3.682 -7.932,-9.033 -7.932,-16.054c0,-6.995 2.837,-12.346 8.511,-16.054c5.635,-3.681 13.084,-5.522 22.347,-5.522c6.716,0 13.509,0.829 20.379,2.485c-0.309,3.313 -0.463,5.272 -0.463,5.877c0,0.553 0.019,1.092 0.058,1.618l0,0.946c0,1.368 -0.097,2.669 -0.29,3.905l-0.984,0c-2.393,-7.941 -9.07,-11.912 -20.031,-11.912c-7.411,0 -13.316,1.644 -17.716,4.931c-4.4,3.26 -6.6,7.967 -6.6,14.12c0,5.391 2.026,9.769 6.079,13.135c4.014,3.366 10.073,5.049 18.179,5.049c4.477,0 8.568,-0.605 12.273,-1.814c3.667,-1.157 6.6,-2.682 8.8,-4.576Z" style="fill:#0051ff;fill-rule:nonzero;stroke:#2a5d7a;stroke-width:1px;"/><path d="M129.151,99.937c4.207,-3.892 6.31,-9.756 6.31,-17.592c0,-6.916 -2.084,-12.307 -6.252,-16.172c7.95,3.234 11.926,8.769 11.926,16.606c0,7.731 -3.995,13.45 -11.984,17.158Zm-46.663,-33.804c-4.246,4.471 -6.369,10.19 -6.369,17.158c0,6.311 2.027,11.781 6.079,16.409c-7.796,-3.497 -11.694,-9.098 -11.694,-16.803c0,-7.915 3.994,-13.503 11.984,-16.764Zm43.305,16.922c0,-12.596 -6.716,-18.894 -20.147,-18.894c-13.162,0 -19.742,6.456 -19.742,19.367c0,12.149 6.657,18.223 19.973,18.223c13.277,0 19.916,-6.232 19.916,-18.696Zm5.442,-0.04c0,4.839 -1.081,8.928 -3.242,12.267c-2.123,3.314 -5.114,5.759 -8.974,7.337c-3.782,1.604 -8.202,2.406 -13.258,2.406c-8.028,0 -14.242,-1.959 -18.642,-5.877c-4.4,-3.918 -6.6,-9.309 -6.6,-16.172c0,-7.126 2.239,-12.596 6.716,-16.409c4.477,-3.76 10.614,-5.64 18.411,-5.64c7.912,0 14.164,1.88 18.757,5.64c4.555,3.734 6.832,9.217 6.832,16.448Z" style="fill:#0051ff;fill-rule:nonzero;stroke:#2a5d7a;stroke-width:1px;"/><path d="M214.718,97.373l-60.152,-34.947l6.832,0l48.689,28.241l0,-16.369c0,-2.735 -0.27,-4.838 -0.811,-6.311c-0.54,-1.393 -1.64,-2.564 -3.3,-3.51c-1.659,-0.921 -3.782,-1.525 -6.368,-1.815l0,-0.71c0.039,0 0.714,0.04 2.026,0.119c5.056,0.236 8.491,0.355 10.305,0.355c1.66,0 5.616,-0.158 11.869,-0.474l0,0.71c-2.007,0.184 -3.763,0.75 -5.269,1.696c-1.466,0.894 -2.47,1.999 -3.01,3.314c-0.54,1.341 -0.811,3.221 -0.811,5.64l0,24.061Zm-66.694,-34.947l66.694,38.812l0,3.235l-1.157,0l-52.453,-30.411l0,18.341c0,3.997 0.753,6.771 2.258,8.323c1.505,1.551 3.879,2.564 7.121,3.037l0,0.71c-5.828,-0.316 -9.784,-0.473 -11.868,-0.473c-2.355,0 -5.905,0.157 -10.653,0.473l0,-0.71c3.32,-0.526 5.577,-1.591 6.774,-3.195c1.196,-1.604 1.795,-4.444 1.795,-8.52l-0.058,-20.59l-4.169,-2.406c-5.789,-3.366 -10.671,-5.496 -14.647,-6.39l0,-0.71l10.363,0.474Z" style="fill:#0051ff;fill-rule:nonzero;stroke:#2a5d7a;stroke-width:1px;"/><path d="M232.26,90.312l1.332,0c0.27,3.366 2.258,6.141 5.963,8.323c3.628,2.156 7.797,3.235 12.505,3.235c3.628,0 6.581,-0.697 8.858,-2.091c2.277,-1.394 3.416,-3.063 3.416,-5.009c0,-2.051 -1.1,-3.642 -3.3,-4.773c-2.123,-1.104 -6.311,-2.354 -12.563,-3.747c-5.018,-1.131 -8.588,-2.064 -10.711,-2.801c-2.47,-0.868 -4.4,-2.038 -5.789,-3.51c-1.505,-1.499 -2.258,-3.182 -2.258,-5.049c0,-2.077 1.023,-4.115 3.068,-6.114c-0.463,1.026 -0.694,1.92 -0.694,2.682c0,2.051 0.714,3.853 2.142,5.404c1.466,1.604 3.28,2.814 5.442,3.629c2.161,0.841 5.77,1.801 10.826,2.879c6.6,1.368 11.367,2.88 14.3,4.536c2.818,1.604 4.226,3.761 4.226,6.469c0,2.656 -1.466,5.062 -4.4,7.218c-2.972,2.183 -7.41,3.274 -13.315,3.274c-2.393,0 -5.713,-0.302 -9.958,-0.907c-3.705,-0.526 -6.484,-0.802 -8.337,-0.828l-0.405,-0.316c0.038,-0.447 0.058,-1.025 0.058,-1.735c0,-0.842 -0.116,-2.143 -0.348,-3.905c-0.193,-1.762 -0.289,-3.077 -0.289,-3.945c0,-1.13 0.077,-2.103 0.231,-2.919Zm40.874,-16.487l-1.216,0c-0.039,-3.05 -1.814,-5.312 -5.326,-6.784c-3.435,-1.447 -7.604,-2.17 -12.505,-2.17c-3.899,0 -7.102,0.566 -9.611,1.696c-2.547,1.131 -3.821,2.485 -3.821,4.063c0,1.683 1.004,3.011 3.011,3.984c2.084,1.052 6.194,2.301 12.331,3.747c5.712,1.341 9.707,2.432 11.984,3.274c2.432,0.92 4.458,2.235 6.079,3.944c1.621,1.762 2.432,3.721 2.432,5.877c0,3.287 -1.776,5.864 -5.327,7.731c1.313,-1.236 1.969,-2.971 1.969,-5.206c0,-2.104 -0.714,-3.971 -2.142,-5.601c-1.506,-1.657 -3.358,-2.972 -5.558,-3.945c-2.239,-0.999 -5.886,-2.064 -10.942,-3.195c-7.604,-1.709 -12.563,-3.168 -14.879,-4.378c-2.316,-1.236 -3.474,-3.155 -3.474,-5.759c0,-2.997 1.776,-5.351 5.327,-7.06c3.55,-1.657 8.587,-2.485 15.11,-2.485c4.439,0 9.861,0.526 16.268,1.578l0,0.276l0.116,1.499c0,0.788 0.039,1.735 0.116,2.84c0.116,1.341 0.174,2.524 0.174,3.55c0,0.683 -0.039,1.525 -0.116,2.524Z" style="fill:#0051ff;fill-rule:nonzero;stroke:#2a5d7a;stroke-width:1px;"/><path d="M343.07,62.426l0,41.574l-5.442,0c0.386,-0.868 0.598,-2.144 0.637,-3.827c-6.407,2.867 -13.123,4.3 -20.147,4.3c-4.13,0 -7.739,-0.618 -10.827,-1.854c-3.087,-1.236 -5.171,-2.827 -6.252,-4.773c-1.119,-1.972 -1.679,-4.746 -1.679,-8.322l0,-27.098c4.052,0 8.53,-0.158 13.431,-0.474l0,0.71c-2.122,0.237 -3.84,0.802 -5.152,1.696c-1.39,0.947 -2.277,1.999 -2.663,3.156c-0.464,1.21 -0.695,3.09 -0.695,5.64l-0.058,0.829l0,15.067c0,3.34 0.367,5.759 1.1,7.258c0.695,1.551 2.277,2.84 4.747,3.865c2.509,1.026 5.616,1.539 9.321,1.539c5.944,0 12.235,-1.486 18.874,-4.457l0,-23.036c0,-2.971 -0.212,-5.14 -0.637,-6.508c-0.386,-1.288 -1.216,-2.38 -2.489,-3.274c-1.197,-0.815 -2.837,-1.407 -4.921,-1.775l0,-0.71c0.231,0 0.771,0.013 1.621,0.04c0.849,0.026 1.756,0.079 2.721,0.158c3.165,0.131 6.001,0.223 8.51,0.276Zm-60.673,-0.474l12.91,0.474l0,27.374c0,4.076 0.406,6.929 1.216,8.559c0.811,1.683 2.567,3.3 5.268,4.852c-2.431,-0.263 -4.612,-0.881 -6.542,-1.854c-1.929,-0.947 -3.222,-2.091 -3.879,-3.432c-0.617,-1.288 -0.926,-3.431 -0.926,-6.429l0,-18.854c0,-3.209 -0.637,-5.575 -1.91,-7.1c-1.274,-1.525 -3.32,-2.485 -6.137,-2.88l0,-0.71Zm68.141,42.048l-3.3,0l0,-41.574c2.895,-0.053 5.095,-0.119 6.6,-0.198l6.542,-0.276l0,0.71c-1.968,0.237 -3.666,0.855 -5.094,1.854c-1.351,0.973 -2.239,2.183 -2.663,3.629c-0.386,1.341 -0.579,3.905 -0.579,7.692l0,17.355c0,6.521 2.779,10.045 8.336,10.571l0,0.71c-5.094,-0.316 -8.375,-0.473 -9.842,-0.473Z" style="fill:#0051ff;fill-rule:nonzero;stroke:#2a5d7a;stroke-width:1px;"/><path d="M410.98,104l-26.805,0l0,-41.574c2.625,-0.053 5.558,-0.158 8.8,-0.316c3.01,-0.105 4.4,-0.158 4.168,-0.158l0,0.71c-2.972,0.526 -5.075,1.565 -6.31,3.116c-1.235,1.604 -1.853,3.984 -1.853,7.14l0,17.158c0,2.577 0.193,4.878 0.579,6.903c0.348,2.129 0.753,3.352 1.216,3.668c0.425,0.315 1.544,0.473 3.358,0.473l12.158,0c4.284,0 7.835,-0.46 10.652,-1.38c2.818,-0.921 5.288,-2.735 7.411,-5.444l1.158,0c-0.271,1.263 -1.139,3.261 -2.606,5.996c-0.965,1.735 -1.582,3.129 -1.852,4.181c-3.127,-0.316 -6.484,-0.473 -10.074,-0.473Zm-43.189,-42.048l12.216,0.474l0,41.574l-3.59,0c-2.2,0 -5.075,0.157 -8.626,0.473l0,-0.71c2.856,-0.763 4.805,-1.985 5.847,-3.668c1.042,-1.71 1.563,-4.444 1.563,-8.205l0,-18.854c0,-4.023 -0.772,-6.679 -2.315,-7.968c-1.583,-1.314 -3.281,-2.116 -5.095,-2.406l0,-0.71Z" style="fill:#0051ff;fill-rule:nonzero;stroke:#2a5d7a;stroke-width:1px;"/><path d="M457.99,104l-1.505,0l0,-41.574l20.842,0c3.821,0 7.584,-0.158 11.289,-0.474c0,0.5 -0.058,1.407 -0.173,2.722c-0.116,1.21 -0.174,2.722 -0.174,4.536c0,1.157 -0.096,2.327 -0.289,3.51l-1.39,0c-0.077,-2.156 -0.868,-3.944 -2.374,-5.364c-1.543,-1.446 -4.805,-2.169 -9.784,-2.169l-13.142,0l0,28.242c0,3.234 0.676,5.666 2.027,7.297c1.35,1.63 3.435,2.642 6.252,3.037l0,0.71c-6.831,-0.316 -10.691,-0.473 -11.579,-0.473Zm-24.894,-41.574l19.105,0l0,41.574l-1.737,0c-2.509,0 -6.253,0.157 -11.231,0.473l0,-0.71c3.203,-0.552 5.403,-1.67 6.599,-3.353c1.158,-1.657 1.737,-4.418 1.737,-8.283l0,-26.94l-14.763,0c-3.744,0 -6.387,0.526 -7.931,1.577c-1.544,1.052 -2.837,3.038 -3.879,5.956l-1.332,0c-0.038,-0.341 -0.058,-0.709 -0.058,-1.104c0,-0.526 0.078,-1.196 0.232,-2.012c0.463,-2.813 0.695,-5.364 0.695,-7.652c2.045,0.184 4.593,0.303 7.642,0.355l4.921,0.119Z" style="fill:#0051ff;fill-rule:nonzero;stroke:#2a5d7a;stroke-width:1px;"/></g><g><path d="M279.956,24.728c0,0 -2.57,15.442 -2.57,22.061c0,1.418 1.151,2.57 2.57,2.57c1.418,0 2.57,-1.152 2.57,-2.57c0,-6.619 -2.57,-22.061 -2.57,-22.061Z" style="fill:#c19661;"/><path d="M279.956,24.631c0,0 2.57,-15.442 2.57,-22.061c0,-1.418 -1.152,-2.57 -2.57,-2.57c-1.419,0 -2.57,1.152 -2.57,2.57c0,6.619 2.57,22.061 2.57,22.061Z" style="fill:#c19661;"/></g><g transform="matrix(0.502457,0,0,0.367098,-45.7312,-101.439)"><text x="681.841px" y="316.617px" style="font-family:'CooperBlack', 'Cooper Black', serif;font-size:20px;fill:#804622;">CONSUL<tspan x="769.507px 783.521px 788.521px 801.538px 817.105px " y="316.617px 316.617px 316.617px 316.617px 316.617px ">T FOR</tspan> SUPERMARKET</text><text x="681.841px" y="348.617px" style="font-family:'CooperBlack', 'Cooper Black', serif;font-size:20px;fill:#804622;">CONSUL<tspan x="769.507px 783.521px 788.521px 801.538px 817.105px " y="348.617px 348.617px 348.617px 348.617px 348.617px ">T FOR</tspan> PHARMA<tspan x="932.798px 947.193px " y="348.617px 348.617px ">CE</tspan>UTIC<tspan x="1013.86px 1030.4px 1043.32px " y="348.617px 348.617px 348.617px ">ALS</tspan></text><text x="681.841px" y="380.617px" style="font-family:'CooperBlack', 'Cooper Black', serif;font-size:20px;fill:#804622;">CONSUL<tspan x="769.507px 783.521px 788.521px 801.538px 817.105px " y="380.617px 380.617px 380.617px 380.617px 380.617px ">T FOR</tspan> A<tspan x="853.345px 869.224px 884.253px 899.82px " y="380.617px 380.617px 380.617px 380.617px ">GROS</tspan></text></g></g></svg>