<?xml version="1.0" encoding="UTF-8" standalone="no"?><!DOCTYPE svg PUBLIC "-//W3C//DTD SVG 1.1//EN" "http://www.w3.org/Graphics/SVG/1.1/DTD/svg11.dtd"><svg width="100%" height="100%" viewBox="0 0 951 280" version="1.1" xmlns="http://www.w3.org/2000/svg" xmlns:xlink="http://www.w3.org/1999/xlink" xml:space="preserve" style="fill-rule:evenodd;clip-rule:evenodd;stroke-linejoin:round;stroke-miterlimit:1.41421;"><g><g><path d="M94.813,120.737l-42.037,-110.544l8.157,0c1.11,3.636 2.664,8.215 4.662,13.739c2.22,5.943 3.468,9.474 3.746,10.593c0.277,0.629 0.527,1.364 0.749,2.203l19.562,51.077c6.825,17.759 14.095,28.527 21.809,32.303l0,1.888c-7.547,-0.839 -13.097,-1.259 -16.648,-1.259Zm-59.435,-52.755l25.139,0l-12.07,-31.884l-13.069,31.884Zm35.544,27.374l-7.408,-19.508l-31.382,0l-7.908,19.508c0,0 -0.139,0.455 -0.416,1.364c-0.056,0.069 -0.472,1.083 -1.249,3.041c-1.165,2.937 -1.748,5.943 -1.748,9.02c0,5.314 2.331,9.089 6.992,11.327l0,1.888c-0.943,0 -2.58,-0.175 -4.911,-0.525c-3.274,-0.489 -6.215,-0.734 -8.824,-0.734c-2.386,0 -5.327,0.245 -8.823,0.734c-2.386,0.35 -3.968,0.525 -4.745,0.525l0,-1.888c6.104,-3.916 11.654,-11.991 16.648,-24.228l27.636,-67.753c-2.108,-5.383 -5.008,-9.544 -8.698,-12.48c-3.691,-2.937 -8.005,-4.545 -12.944,-4.825l0,-1.888l2.913,0c2.608,0 6.188,0.21 10.738,0.63c4.773,0.419 7.88,0.629 9.323,0.629l42.037,110.544c-5.383,0.14 -11.848,0.56 -19.395,1.259l0,-1.888c4.218,-0.909 6.326,-3.776 6.326,-8.6c0,-3.566 -1.387,-8.95 -4.162,-16.152Z" style="fill:#0051ff;fill-rule:nonzero;stroke:#2a5d7a;stroke-width:1px;"/><path d="M129.441,24.981c-6.326,10.278 -9.49,23.948 -9.49,41.008c0,19.998 3.913,35.031 11.737,45.099c-5.937,-3.146 -10.654,-8.845 -14.151,-17.095c-3.496,-8.181 -5.244,-17.411 -5.244,-27.689c0,-7.062 0.916,-13.565 2.747,-19.508c1.72,-5.873 3.774,-10.453 6.16,-13.739c2.22,-3.147 4.967,-5.839 8.241,-8.076Zm69.257,72.997l1.665,0l-2.664,17.725c-5.161,2.517 -10.128,4.37 -14.9,5.559c-4.773,1.188 -9.379,1.783 -13.818,1.783c-13.43,0 -23.946,-4.93 -31.549,-14.789c-7.603,-9.788 -11.404,-24.017 -11.404,-42.686c0,-18.599 4.079,-32.828 12.237,-42.687c8.102,-9.788 18.812,-14.683 32.131,-14.683c9.656,0 19.423,2.203 29.301,6.608c-0.444,8.81 -0.666,14.019 -0.666,15.627c0,1.468 0.027,2.902 0.083,4.3l0,2.517c0,3.636 -0.139,7.097 -0.416,10.383l-1.415,0c-3.441,-21.116 -13.041,-31.674 -28.802,-31.674c-10.655,0 -19.145,4.37 -25.472,13.11c-6.326,8.671 -9.489,21.186 -9.489,37.548c0,14.333 2.913,25.975 8.74,34.925c5.772,8.95 14.484,13.425 26.138,13.425c6.437,0 12.32,-1.608 17.647,-4.825c5.272,-3.076 9.49,-7.132 12.653,-12.166Z" style="fill:#0051ff;fill-rule:nonzero;stroke:#2a5d7a;stroke-width:1px;"/><path d="M295.757,10.193l0,110.544l-7.824,0c0.555,-2.307 0.86,-5.698 0.915,-10.173c-9.212,7.621 -18.868,11.432 -28.968,11.432c-5.938,0 -11.126,-1.643 -15.566,-4.93c-4.439,-3.286 -7.436,-7.516 -8.99,-12.69c-1.609,-5.244 -2.414,-12.621 -2.414,-22.13l0,-72.053c5.827,0 12.264,-0.42 19.312,-1.259l0,1.888c-3.052,0.629 -5.522,2.133 -7.408,4.51c-1.998,2.517 -3.275,5.314 -3.83,8.39c-0.666,3.217 -0.998,8.216 -0.998,14.998l-0.084,2.203l0,40.064c0,8.88 0.527,15.313 1.582,19.298c0.999,4.126 3.274,7.552 6.826,10.279c3.607,2.727 8.074,4.09 13.402,4.09c8.546,0 17.591,-3.95 27.136,-11.851l0,-61.251c0,-7.901 -0.305,-13.669 -0.915,-17.305c-0.555,-3.426 -1.749,-6.328 -3.58,-8.705c-1.72,-2.168 -4.079,-3.741 -7.075,-4.72l0,-1.888c0.333,0 1.11,0.035 2.33,0.105c1.221,0.07 2.525,0.21 3.913,0.42c4.55,0.349 8.629,0.594 12.236,0.734Zm-87.237,-1.259l18.563,1.259l0,72.787c0,10.838 0.583,18.424 1.748,22.759c1.166,4.475 3.691,8.775 7.575,12.901c-3.496,-0.7 -6.631,-2.343 -9.406,-4.93c-2.775,-2.517 -4.634,-5.558 -5.577,-9.124c-0.888,-3.427 -1.332,-9.125 -1.332,-17.096l0,-50.133c0,-8.53 -0.916,-14.823 -2.747,-18.879c-1.831,-4.055 -4.773,-6.607 -8.824,-7.656l0,-1.888Zm97.975,111.803l-4.744,0l0,-110.544c4.162,-0.14 7.325,-0.315 9.489,-0.525l9.406,-0.734l0,1.888c-2.83,0.629 -5.272,2.273 -7.325,4.929c-1.942,2.588 -3.218,5.804 -3.829,9.65c-0.555,3.565 -0.832,10.383 -0.832,20.451l0,46.148c0,17.34 3.995,26.71 11.986,28.108l0,1.888c-7.325,-0.839 -12.042,-1.259 -14.151,-1.259Z" style="fill:#0051ff;fill-rule:nonzero;stroke:#2a5d7a;stroke-width:1px;"/><path d="M383.244,120.737l-2.164,0l0,-110.544l29.967,0c5.494,0 10.904,-0.42 16.232,-1.259c0,1.329 -0.084,3.741 -0.25,7.237c-0.167,3.216 -0.25,7.237 -0.25,12.061c0,3.077 -0.139,6.188 -0.416,9.335l-1.998,0c-0.111,-5.734 -1.248,-10.488 -3.413,-14.264c-2.219,-3.846 -6.909,-5.769 -14.067,-5.769l-18.896,0l0,75.095c0,8.6 0.971,15.068 2.913,19.403c1.942,4.335 4.939,7.027 8.99,8.076l0,1.888c-9.822,-0.839 -15.372,-1.259 -16.648,-1.259Zm-35.794,-110.544l27.47,0l0,110.544l-2.497,0c-3.608,0 -8.99,0.42 -16.149,1.259l0,-1.888c4.606,-1.468 7.769,-4.44 9.489,-8.915c1.665,-4.405 2.498,-11.747 2.498,-22.025l0,-71.634l-21.227,0c-5.383,0 -9.184,1.399 -11.404,4.196c-2.22,2.797 -4.079,8.076 -5.577,15.837l-1.915,0c-0.055,-0.909 -0.083,-1.888 -0.083,-2.937c0,-1.398 0.111,-3.181 0.333,-5.349c0.666,-7.481 0.999,-14.264 0.999,-20.347c2.941,0.49 6.604,0.804 10.988,0.944l7.075,0.315Z" style="fill:#0051ff;fill-rule:nonzero;stroke:#2a5d7a;stroke-width:1px;"/><path d="M451.252,10.193l2.747,0l0,110.544l-5.494,0c-1.942,0 -6.049,0.42 -12.319,1.259l0,-1.888c2.996,-0.979 5.271,-2.762 6.825,-5.349c1.61,-2.657 2.692,-5.699 3.247,-9.125c0.61,-3.635 0.915,-11.327 0.915,-23.073l0,-43.945c0,-10.139 -1.082,-17.096 -3.246,-20.872c-2.164,-3.775 -4.745,-6.083 -7.741,-6.922l0,-1.888c3.385,0.28 8.407,0.699 15.066,1.259Zm42.037,110.544l-33.296,0l0,-110.544l24.223,0c4.55,0 13.152,-0.42 25.805,-1.259c-0.111,2.098 -0.167,3.671 -0.167,4.72c0,1.398 0.139,4.65 0.416,9.754c0.167,3.426 0.25,5.279 0.25,5.558l0,2.623l-1.415,0c-1.998,-6.014 -4.273,-9.894 -6.826,-11.642c-2.553,-1.678 -7.353,-2.517 -14.401,-2.517l-13.235,0c-2.109,0 -4.051,0.174 -5.827,0.524c-0.999,2.377 -1.581,8.041 -1.748,16.991l-0.166,7.132l0,17.095l17.98,0c6.77,0 11.265,-0.734 13.485,-2.202c2.22,-1.469 3.995,-4.965 5.327,-10.488l1.832,0c-0.444,6.292 -0.666,11.746 -0.666,16.361c0,2.937 0.166,6.782 0.499,11.537c0.111,1.398 0.25,4.16 0.416,8.285l-1.831,0c-0.499,-6.153 -1.97,-10.383 -4.412,-12.69c-2.497,-2.307 -6.409,-3.461 -11.737,-3.461l-20.893,0l0,22.864c0,8.81 0.388,16.536 1.165,23.179c2.331,0.419 4.828,0.629 7.492,0.629l12.652,0c6.882,0 12.07,-0.979 15.567,-2.937c3.662,-2.028 7.269,-6.537 10.821,-13.529l1.665,0c-0.611,3.216 -1.526,6.922 -2.747,11.117c-1.499,5.454 -2.581,10.173 -3.247,14.159c-6.326,-0.839 -11.986,-1.259 -16.981,-1.259Z" style="fill:#0051ff;fill-rule:nonzero;stroke:#2a5d7a;stroke-width:1px;"/></g><g><path d="M26.499,180.777c-8.548,10.278 -12.822,23.948 -12.822,41.008c0,19.998 5.286,35.031 15.859,45.099c-8.023,-3.146 -14.396,-8.845 -19.12,-17.095c-4.724,-8.181 -7.086,-17.411 -7.086,-27.689c0,-7.062 1.237,-13.565 3.712,-19.508c2.324,-5.873 5.098,-10.453 8.322,-13.739c3,-3.147 6.711,-5.839 11.135,-8.076Zm93.575,72.997l2.249,0l-3.599,17.725c-6.973,2.517 -13.684,4.37 -20.132,5.559c-6.448,1.188 -12.672,1.783 -18.67,1.783c-18.145,0 -32.354,-4.93 -42.626,-14.789c-10.272,-9.788 -15.408,-24.017 -15.408,-42.686c0,-18.599 5.511,-32.828 16.533,-42.687c10.947,-9.788 25.418,-14.683 43.413,-14.683c13.046,0 26.243,2.203 39.589,6.608c-0.6,8.81 -0.9,14.019 -0.9,15.627c0,1.468 0.038,2.902 0.113,4.3l0,2.517c0,3.636 -0.188,7.097 -0.562,10.383l-1.912,0c-4.649,-21.116 -17.621,-31.674 -38.915,-31.674c-14.396,0 -25.868,4.37 -34.416,13.11c-8.547,8.671 -12.821,21.186 -12.821,37.548c0,14.333 3.936,25.975 11.809,34.925c7.798,8.95 19.57,13.425 35.316,13.425c8.697,0 16.645,-1.608 23.843,-4.825c7.123,-3.076 12.822,-7.132 17.096,-12.166Z" style="fill:#0051ff;fill-rule:nonzero;stroke:#2a5d7a;stroke-width:1px;"/><path d="M250.426,265.73c8.173,-10.348 12.259,-25.94 12.259,-46.776c0,-18.389 -4.049,-32.723 -12.147,-43.002c15.446,8.601 23.169,23.319 23.169,44.155c0,20.557 -7.76,35.765 -23.281,45.623Zm-90.651,-89.882c-8.247,11.886 -12.371,27.094 -12.371,45.623c0,16.781 3.936,31.324 11.809,43.63c-15.146,-9.299 -22.719,-24.192 -22.719,-44.679c0,-21.046 7.761,-35.904 23.281,-44.574Zm84.128,44.993c0,-33.491 -13.047,-50.237 -39.14,-50.237c-25.568,0 -38.352,17.165 -38.352,51.496c0,32.303 12.934,48.455 38.802,48.455c25.793,0 38.69,-16.571 38.69,-49.714Zm10.572,-0.104c0,12.865 -2.1,23.738 -6.299,32.618c-4.123,8.81 -9.934,15.312 -17.432,19.507c-7.348,4.266 -15.934,6.398 -25.756,6.398c-15.596,0 -27.667,-5.209 -36.215,-15.627c-8.548,-10.418 -12.822,-24.752 -12.822,-43.001c0,-18.949 4.349,-33.492 13.047,-43.631c8.697,-9.998 20.619,-14.998 35.765,-14.998c15.371,0 27.518,5 36.44,14.998c8.848,9.929 13.272,24.507 13.272,43.736Z" style="fill:#0051ff;fill-rule:nonzero;stroke:#2a5d7a;stroke-width:1px;"/><path d="M416.656,258.913l-116.856,-92.924l13.271,0l94.587,75.094l0,-43.525c0,-7.272 -0.525,-12.865 -1.574,-16.781c-1.05,-3.706 -3.187,-6.817 -6.411,-9.334c-3.224,-2.448 -7.348,-4.056 -12.372,-4.825l0,-1.888c0.075,0 1.387,0.105 3.937,0.315c9.822,0.629 16.495,0.944 20.019,0.944c3.224,0 10.91,-0.42 23.057,-1.259l0,1.888c-3.899,0.49 -7.311,1.993 -10.235,4.51c-2.849,2.377 -4.799,5.314 -5.849,8.81c-1.049,3.566 -1.574,8.565 -1.574,14.998l0,63.977Zm-129.565,-92.924l129.565,103.203l0,8.6l-2.25,0l-101.897,-80.863l0,48.769c0,10.628 1.462,18.005 4.386,22.13c2.925,4.125 7.536,6.817 13.834,8.076l0,1.888c-11.322,-0.839 -19.007,-1.259 -23.056,-1.259c-4.574,0 -11.472,0.42 -20.695,1.259l0,-1.888c6.449,-1.398 10.835,-4.23 13.159,-8.495c2.325,-4.266 3.487,-11.817 3.487,-22.655l-0.113,-54.747l-8.097,-6.398c-11.247,-8.95 -20.732,-14.614 -28.455,-16.991l0,-1.888l20.132,1.259Z" style="fill:#0051ff;fill-rule:nonzero;stroke:#2a5d7a;stroke-width:1px;"/><path d="M450.734,240.14l2.587,0c0.525,8.949 4.386,16.326 11.584,22.129c7.048,5.734 15.146,8.601 24.294,8.601c7.048,0 12.784,-1.853 17.207,-5.559c4.424,-3.706 6.636,-8.146 6.636,-13.32c0,-5.454 -2.137,-9.684 -6.411,-12.69c-4.123,-2.937 -12.259,-6.258 -24.405,-9.964c-9.748,-3.007 -16.683,-5.489 -20.807,-7.447c-4.799,-2.307 -8.548,-5.419 -11.247,-9.334c-2.924,-3.986 -4.387,-8.46 -4.387,-13.425c0,-5.524 1.987,-10.942 5.961,-16.256c-0.899,2.727 -1.349,5.104 -1.349,7.132c0,5.453 1.387,10.243 4.161,14.368c2.849,4.265 6.373,7.482 10.572,9.649c4.199,2.238 11.21,4.79 21.032,7.657c12.821,3.635 22.081,7.656 27.78,12.061c5.473,4.265 8.21,9.998 8.21,17.2c0,7.062 -2.849,13.46 -8.547,19.193c-5.774,5.804 -14.397,8.706 -25.868,8.706c-4.649,0 -11.097,-0.804 -19.345,-2.413c-7.198,-1.398 -12.597,-2.132 -16.196,-2.202l-0.787,-0.839c0.075,-1.189 0.112,-2.727 0.112,-4.615c0,-2.237 -0.225,-5.698 -0.674,-10.383c-0.375,-4.685 -0.563,-8.181 -0.563,-10.488c0,-3.007 0.15,-5.594 0.45,-7.761Zm79.404,-43.841l-2.362,0c-0.075,-8.11 -3.524,-14.124 -10.347,-18.039c-6.674,-3.846 -14.771,-5.769 -24.294,-5.769c-7.573,0 -13.796,1.504 -18.67,4.51c-4.949,3.007 -7.423,6.608 -7.423,10.803c0,4.475 1.95,8.006 5.849,10.593c4.048,2.797 12.034,6.118 23.956,9.964c11.097,3.566 18.857,6.467 23.281,8.705c4.723,2.447 8.66,5.943 11.809,10.488c3.149,4.685 4.724,9.894 4.724,15.627c0,8.74 -3.449,15.592 -10.347,20.557c2.549,-3.287 3.824,-7.901 3.824,-13.845c0,-5.593 -1.388,-10.558 -4.162,-14.893c-2.924,-4.405 -6.523,-7.901 -10.797,-10.488c-4.349,-2.657 -11.434,-5.488 -21.257,-8.495c-14.771,-4.545 -24.406,-8.425 -28.904,-11.642c-4.499,-3.286 -6.748,-8.39 -6.748,-15.312c0,-7.971 3.449,-14.229 10.347,-18.774c6.898,-4.405 16.683,-6.608 29.354,-6.608c8.623,0 19.158,1.399 31.604,4.196l0,0.734l0.225,3.985c0,2.098 0.075,4.615 0.225,7.552c0.225,3.566 0.338,6.712 0.338,9.439c0,1.818 -0.075,4.055 -0.225,6.712Z" style="fill:#0051ff;fill-rule:nonzero;stroke:#2a5d7a;stroke-width:1px;"/><path d="M666.001,165.989l0,110.544l-10.572,0c0.749,-2.307 1.162,-5.698 1.237,-10.173c-12.447,7.621 -25.493,11.432 -39.14,11.432c-8.022,0 -15.033,-1.643 -21.031,-4.93c-5.999,-3.286 -10.048,-7.516 -12.147,-12.69c-2.175,-5.244 -3.262,-12.621 -3.262,-22.13l0,-72.053c7.873,0 16.571,-0.42 26.093,-1.259l0,1.888c-4.124,0.629 -7.46,2.133 -10.01,4.51c-2.699,2.517 -4.423,5.314 -5.173,8.39c-0.9,3.217 -1.35,8.216 -1.35,14.998l-0.112,2.203l0,40.064c0,8.88 0.712,15.313 2.137,19.298c1.349,4.126 4.423,7.552 9.222,10.279c4.874,2.727 10.91,4.09 18.108,4.09c11.547,0 23.768,-3.95 36.665,-11.851l0,-61.251c0,-7.901 -0.413,-13.669 -1.237,-17.305c-0.75,-3.426 -2.362,-6.328 -4.837,-8.705c-2.324,-2.168 -5.511,-3.741 -9.559,-4.72l0,-1.888c0.449,0 1.499,0.035 3.149,0.105c1.649,0.07 3.411,0.21 5.286,0.42c6.148,0.349 11.659,0.594 16.533,0.734Zm-117.868,-1.259l25.08,1.259l0,72.787c0,10.838 0.788,18.424 2.362,22.759c1.575,4.475 4.986,8.775 10.235,12.901c-4.724,-0.7 -8.96,-2.343 -12.709,-4.93c-3.749,-2.517 -6.261,-5.558 -7.536,-9.124c-1.199,-3.427 -1.799,-9.125 -1.799,-17.096l0,-50.133c0,-8.53 -1.237,-14.823 -3.712,-18.879c-2.474,-4.055 -6.448,-6.607 -11.921,-7.656l0,-1.888Zm132.376,111.803l-6.41,0l0,-110.544c5.623,-0.14 9.897,-0.315 12.821,-0.525l12.709,-0.734l0,1.888c-3.824,0.629 -7.123,2.273 -9.897,4.929c-2.624,2.588 -4.349,5.804 -5.174,9.65c-0.75,3.565 -1.124,10.383 -1.124,20.451l0,46.148c0,17.34 5.398,26.71 16.195,28.108l0,1.888c-9.897,-0.839 -16.27,-1.259 -19.12,-1.259Z" style="fill:#0051ff;fill-rule:nonzero;stroke:#2a5d7a;stroke-width:1px;"/><path d="M797.928,276.533l-52.074,0l0,-110.544c5.099,-0.14 10.797,-0.42 17.096,-0.839c5.848,-0.28 8.547,-0.42 8.097,-0.42l0,1.888c-5.773,1.398 -9.859,4.16 -12.259,8.286c-2.399,4.265 -3.599,10.593 -3.599,18.983l0,45.623c0,6.852 0.375,12.971 1.125,18.354c0.675,5.664 1.462,8.915 2.362,9.754c0.824,0.839 2.999,1.259 6.523,1.259l23.619,0c8.322,0 15.22,-1.224 20.694,-3.671c5.473,-2.447 10.272,-7.272 14.396,-14.473l2.249,0c-0.524,3.356 -2.211,8.67 -5.061,15.941c-1.874,4.615 -3.074,8.321 -3.599,11.118c-6.073,-0.839 -12.596,-1.259 -19.569,-1.259Zm-83.903,-111.803l23.731,1.259l0,110.544l-6.973,0c-4.274,0 -9.86,0.42 -16.758,1.259l0,-1.888c5.549,-2.028 9.335,-5.279 11.36,-9.754c2.024,-4.545 3.036,-11.817 3.036,-21.815l0,-50.133c0,-10.698 -1.499,-17.76 -4.498,-21.186c-3.075,-3.496 -6.374,-5.629 -9.898,-6.398l0,-1.888Z" style="fill:#0051ff;fill-rule:nonzero;stroke:#2a5d7a;stroke-width:1px;"/><path d="M889.253,276.533l-2.924,0l0,-110.544l40.489,0c7.423,0 14.733,-0.42 21.931,-1.259c0,1.329 -0.112,3.741 -0.337,7.237c-0.225,3.216 -0.338,7.237 -0.338,12.061c0,3.077 -0.187,6.188 -0.562,9.335l-2.699,0c-0.15,-5.734 -1.687,-10.488 -4.611,-14.264c-3,-3.846 -9.335,-5.769 -19.008,-5.769l-25.53,0l0,75.095c0,8.6 1.312,15.068 3.936,19.403c2.624,4.335 6.673,7.027 12.147,8.076l0,1.888c-13.272,-0.839 -20.77,-1.259 -22.494,-1.259Zm-48.362,-110.544l37.115,0l0,110.544l-3.374,0c-4.874,0 -12.147,0.42 -21.819,1.259l0,-1.888c6.223,-1.468 10.497,-4.44 12.821,-8.915c2.25,-4.405 3.374,-11.747 3.374,-22.025l0,-71.634l-28.679,0c-7.273,0 -12.41,1.399 -15.409,4.196c-2.999,2.797 -5.511,8.076 -7.535,15.837l-2.587,0c-0.075,-0.909 -0.112,-1.888 -0.112,-2.937c0,-1.398 0.149,-3.181 0.449,-5.349c0.9,-7.481 1.35,-14.264 1.35,-20.347c3.974,0.49 8.923,0.804 14.846,0.944l9.56,0.315Z" style="fill:#0051ff;fill-rule:nonzero;stroke:#2a5d7a;stroke-width:1px;"/></g><g><path d="M543.391,65.751c0,0 -4.994,42.35 -4.994,60.5c0,2.756 2.238,4.994 4.994,4.994c2.756,0 4.993,-2.238 4.993,-4.994c0,-18.15 -4.993,-60.5 -4.993,-60.5Z" style="fill:#c19661;"/><path d="M543.391,65.494c0,0 4.993,-42.351 4.993,-60.501c0,-2.756 -2.237,-4.993 -4.993,-4.993c-2.756,0 -4.994,2.237 -4.994,4.993c0,18.15 4.994,60.501 4.994,60.501Z" style="fill:#c19661;"/></g><g transform="matrix(1,0,0,1,-105.603,-276.955)"><text x="681.841px" y="316.617px" style="font-family:'CooperBlack', 'Cooper Black', serif;font-size:20px;fill:#804622;">CONSUL<tspan x="769.507px 783.521px 788.521px 801.538px 817.105px " y="316.617px 316.617px 316.617px 316.617px 316.617px ">T FOR</tspan> SUPERMARKET</text><text x="681.841px" y="348.617px" style="font-family:'CooperBlack', 'Cooper Black', serif;font-size:20px;fill:#804622;">CONSUL<tspan x="769.507px 783.521px 788.521px 801.538px 817.105px " y="348.617px 348.617px 348.617px 348.617px 348.617px ">T FOR</tspan> PHARMA<tspan x="932.798px 947.193px " y="348.617px 348.617px ">CE</tspan>UTIC<tspan x="1013.86px 1030.4px 1043.32px " y="348.617px 348.617px 348.617px ">ALS</tspan></text><text x="681.841px" y="380.617px" style="font-family:'CooperBlack', 'Cooper Black', serif;font-size:20px;fill:#804622;">CONSUL<tspan x="769.507px 783.521px 788.521px 801.538px 817.105px " y="380.617px 380.617px 380.617px 380.617px 380.617px ">T FOR</tspan> A<tspan x="853.345px 869.224px 884.253px 899.82px " y="380.617px 380.617px 380.617px 380.617px ">GROS</tspan></text></g></g></svg>